# AST/ASF file generated using VICON BodyLanguage
# -----------------------------------------------
:version 1.10
:name VICON
:units
  mass 1.0
  length 0.45
  angle deg
:documentation
   .ast/.asf automatically generated from VICON data using
   VICON BodyBuilder and BodyLanguage model FoxedUp or BRILLIANT.MOD
:root
   order TX TY TZ RX RY RZ
   axis XYZ
   position 0 0 0  
   orientation 0 -0 0 
:bonedata
  begin
     id 1 
     name lhipjoint
     direction 0.515797 -0.759363 0.396637 
     length 2.47888 
     axis 0 -0 0  XYZ
  end
  begin
     id 2 
     name lfemur
     direction 0.34202 -0.939693 0  
     length 6.81885  
     axis 0 -0 20  XYZ
    dof rx ry rz
    limits (-160.0 20.0)
           (-70.0 70.0)
           (-60.0 70.0)
  end
  begin
     id 3 
     name ltibia
     direction 0.342037 -0.939687 0   
     length 7.89258   
     axis 0 -0 20   XYZ
    dof rx
    limits (-10.0 170.0)
  end
  begin
     id 4 
     name lfoot
     direction 0.173497 -0.476678 0.861787   
     length 2.51543   
     axis -90 -1.13533e-015 20   XYZ
    dof rx rz
    limits (-45.0 90.0)
           (-70.0 20.0)
  end
  begin
     id 5 
     name ltoes
     direction 1.53564e-011 -4.21897e-011 1   
     length 1.21388   
     axis -90 -1.13533e-015 20   XYZ
    dof rx
    limits (-90.0 20.0)
  end
  begin
     id 6 
     name rhipjoint
     direction -0.489454 -0.772941 0.403729   
     length 2.43534  
     axis 0 -0 0  XYZ 
  end
  begin
     id 7 
     name rfemur
     direction -0.34202 -0.939693 0   
     length 7.10357   
     axis 0 -0 -20   XYZ
    dof rx ry rz
    limits (-160.0 20.0)
           (-70.0 70.0)
           (-70.0 60.0)
  end
  begin
     id 8 
     name rtibia
     direction -0.34202 -0.939693 0   
     length 9.16127   
     axis 0 -0 -20   XYZ
    dof rx
    limits (-10.0 170.0)
 end
 begin
     id 9 
     name rfoot
     direction -0.270974 -0.748671 0.605033   
     length 1.74894  
     axis -90 1.13533e-015 -20   XYZ
    dof rx rz
    limits (-45.0 90.0)
           (-20.0 70.0)
  end
  begin
     id 10 
     name rtoes
     direction -1.53557e-011 -4.21759e-011 1   
     length 0.787585   
     axis -90 1.13533e-015 -20   XYZ
    dof rx
    limits (-90.0 20.0)
  end
  begin
     id 11 
     name lowerback
     direction -0.0140249 0.999561 0.0260968   
     length 2.16963   
     axis 0 -0 0   XYZ
    dof rx ry rz
    limits (-20.0 45.0)
           (-30.0 30.0)
           (-30.0 30.0)
  end
  begin
     id 12 
     name upperback
     direction 0.00860018 0.999959 -0.002711   
     length 2.1726   
     axis 0 -0 0   XYZ
    dof rx ry rz
    limits (-20.0 45.0)
           (-30.0 30.0)
           (-30.0 30.0)
  end
  begin
     id 13 
     name thorax
     direction 0.015211 0.999782 -0.0143191   
     length 2.17061   
     axis 0 -0 0   XYZ
    dof rx ry rz
    limits (-20.0 45.0)
           (-30.0 30.0)
           (-30.0 30.0)
  end
  begin
     id 14 
     name lowerneck
     direction -0.0140143 0.999447 0.030145   
     length 2.26749   
     axis 0 -0 0   XYZ
    dof rx ry rz
    limits (-20.0 45.0)
           (-30.0 30.0)
           (-30.0 30.0)
  end
  begin
     id 15 
     name upperneck
     direction 0.118062 0.961438 -0.248392   
     length 2.22728   
     axis 0 -0 0   XYZ
    dof rx ry rz
    limits (-20.0 45.0)
           (-30.0 30.0)
           (-30.0 30.0)
  end
  begin
     id 16
     name head
     direction 0.0431885 0.9954 -0.085514  
     length 2.28786  
     axis 0 -0 0   XYZ
    dof rx ry rz
    limits (-20.0 45.0)
           (-30.0 30.0)
           (-30.0 30.0)
  end
  begin
     id 17 
     name lclavicle
     direction 0.912126 0.409548 0.0172323  
     length 4.31571  
     axis 0 -0 0   XYZ
    dof ry rz
    limits (-20.0 10.0)
           (0.0 20.0)
  end
  begin
     id 18 
     name lhumerus
     direction 1 -4.48977e-011 1.93091e-027   
     length 5.13658   
     axis 180 -30 -90   XYZ
    dof rx ry rz
    limits (-60.0 90.0)
           (-90.0 90.0)
           (-90.0 90.0)
  end
  begin
     id 19
     name lradius
     direction 1 -4.48916e-011 6.84018e-027   
     length 3.22473   
     axis 180 -30 -90   XYZ
    dof rx
    limits (-10.0 170.0)
  end
  begin
     id 20
     name lwrist
     direction 1 -4.48987e-011 7.01981e-027   
     length 1.61236   
     axis -4.37994e-015 90 90   XYZ
    dof ry
    limits (-180.0 0.0)
 end
  begin
     id 21 
     name lhand
     direction 1 -4.49037e-011 1.40335e-026   
     length 0.936406   
     axis -8.96029e-015 90 90   XYZ
    dof rx rz
    limits (-90.0 90.0)
           (-45.0 45.0)
  end
  begin
     id 22 
     name lfingers
     direction 1 -4.48886e-011 2.8104e-026   
     length 0.754955   
     axis -1.79203e-014 90 90   XYZ
    dof rx
    limits (0.0 90.0)
  end
  begin
     id 23
     name lthumb
     direction 0.707107 -6.34937e-011 0.707107   
     length 1.08397   
     axis -90 45 -4.48555e-014   XYZ
    dof rx rz
    limits (-45.0 45.0)
           (-45.0 45.0)
  end
  begin
     id 24 
     name rclavicle
     direction -0.947962 0.317997 0.0156638   
     length 4.86918  
     axis 0 -0 0   XYZ 
    dof ry rz
    limits (-10.0 20.0)
           (-20.0 0.0)
  end
  begin
     id 25 
     name rhumerus
     direction -1 -4.48951e-011 2.80534e-018  
     length 5.60911   
     axis 180 30 90   XYZ
    dof rx ry rz
    limits (-90.0 60.0)
           (-90.0 90.0)
           (-90.0 90.0)
  end
  begin
     id 26 
     name rradius
     direction -1 -4.4898e-011 2.11315e-027   
     length 3.38704   
     axis 180 30 90   XYZ
    dof rx
    limits (-10.0 170.0)
  end
  begin
     id 27 
     name rwrist
     direction -1 -4.48933e-011 7.02314e-027   
     length 1.69352   
     axis -4.37994e-015 -90 -90   XYZ
    dof ry
    limits (-180.0 0.0)
  end
  begin
     id 28
     name rhand
     direction -1 -4.48937e-011 1.40458e-026   
     length 0.755878   
     axis -8.96029e-015 -90 -90   XYZ
    dof rx rz
    limits (-90.0 90.0)
           (-45.0 45.0)
  end
  begin
     id 29
     name rfingers
     direction -1 -4.4901e-011 2.80737e-026   
     length 0.609409   
     axis -1.79203e-014 -90 -90   XYZ
    dof rx
    limits (0.0 90.0)
  end
  begin
     id 30
     name rthumb
     direction -0.707107 -6.34968e-011 0.707107   
     length 0.874992   
     axis -90 -45 4.48555e-014   XYZ
    dof rx rz
    limits (-45.0 45.0)
           (-45.0 45.0)
  end
:hierarchy
  begin
    root lhipjoint rhipjoint lowerback
    lhipjoint lfemur
    lfemur ltibia
    ltibia lfoot
    lfoot ltoes
    rhipjoint rfemur
    rfemur rtibia
    rtibia rfoot
    rfoot rtoes
    lowerback upperback
    upperback thorax
    thorax lowerneck lclavicle rclavicle
    lowerneck upperneck
    upperneck head
    lclavicle lhumerus
    lhumerus lradius
    lradius lwrist
    lwrist lhand lthumb
    lhand lfingers
    rclavicle rhumerus
    rhumerus rradius
    rradius rwrist
    rwrist rhand rthumb
    rhand rfingers
  end

#!OML:ASF C:\ViconDB\ViconDB\414\Spring2016\041811\Spring2016.ASF
:FULLY-SPECIFIED
:DEGREES
16
root 11.3724 18.0801 29.3981 -173.95 -15.8405 178.76
lowerback 2.7689 0.798987 -2.88935
upperback 0.778164 0.978244 1.14573
thorax -0.822314 0.484958 2.76333
lowerneck -11.4783 -2.46506 -9.65341
upperneck 20.6497 -5.40154 13.414
head 8.93083 -2.33765 5.60006
rclavicle 2.47487e-014 8.34896e-015
rhumerus -40.4472 -1.46186 -79.693
rradius 93.454
rwrist 19.6268
rhand -42.0679 -12.8377
rfingers 7.12502
rthumb -14.9606 -42.2774
lclavicle 2.47487e-014 8.34896e-015
lhumerus -54.7863 -15.411 88.2715
lradius 42.8901
lwrist -26.9012
lhand -28.8356 14.6219
lfingers 7.12502
lthumb -2.19289 44.5904
rfemur -19.0944 -12.9644 20.3051
rtibia 33.564
rfoot -166.193 9.08069
rtoes -17.487
lfemur -1.26388 -10.7776 -14.291
ltibia 30.0491
lfoot -13.763 -10.651
ltoes -18.7589
17
root 11.3712 18.0768 29.3931 -174.02 -15.8005 178.973
lowerback 2.8006 0.757596 -2.5772
upperback 0.815208 0.929443 1.08235
thorax -0.792805 0.458801 2.5241
lowerneck -11.5098 -2.39925 -9.58812
upperneck 20.601 -5.365 13.6018
head 8.9186 -2.30036 5.65836
rclavicle -3.10104e-014 5.96354e-015
rhumerus -40.3799 -1.39359 -80.0381
rradius 93.4694
rwrist 19.4924
rhand -41.821 -12.9704
rfingers 7.12502
rthumb -14.7227 -42.4276
lclavicle -3.10104e-014 5.96354e-015
lhumerus -54.7785 -15.4746 88.2046
lradius 43.0695
lwrist -26.5481
lhand -28.8195 14.688
lfingers 7.12502
lthumb -2.1774 44.6567
rfemur -19.1004 -12.787 20.5455
rtibia 33.6179
rfoot -166.284 9.02055
rtoes -17.431
lfemur -1.31441 -10.4967 -13.9845
ltibia 30.1238
lfoot -13.6485 -10.9343
ltoes -18.789
18
root 11.3649 18.0731 29.3867 -174.099 -15.7592 179.039
lowerback 2.9012 0.77338 -2.50217
upperback 0.835889 0.949207 1.07417
thorax -0.827845 0.468404 2.47166
lowerneck -11.4765 -2.40899 -9.44034
upperneck 20.5656 -5.36446 13.4391
head 8.89241 -2.30295 5.57275
rclavicle 9.44227e-016 -1.63003e-014
rhumerus -40.3899 -1.37708 -80.1073
rradius 93.416
rwrist 19.5955
rhand -42.0973 -13.3514
rfingers 7.12502
rthumb -14.9889 -42.7889
lclavicle 9.44227e-016 -1.63003e-014
lhumerus -54.7115 -15.4424 88.2813
lradius 43.1565
lwrist -26.8752
lhand -28.72 14.8164
lfingers 7.12502
lthumb -2.08125 44.786
rfemur -19.0448 -12.7012 20.5871
rtibia 33.6716
rfoot -166.332 9.01786
rtoes -17.4323
lfemur -1.26868 -10.4071 -13.9153
ltibia 30.1668
lfoot -13.5653 -11.0366
ltoes -18.7708
19
root 11.3645 18.0734 29.3539 -173.799 -15.2673 179.023
lowerback 2.33832 0.898356 -2.658
upperback 0.833425 1.12849 0.986095
thorax -0.527405 0.555351 2.47045
lowerneck -11.5496 -2.38386 -9.18245
upperneck 20.5856 -5.36328 13.3565
head 8.90458 -2.28826 5.49781
rclavicle -1.25731e-014 -9.93923e-015
rhumerus -40.4302 -1.3555 -80.3294
rradius 93.3908
rwrist 19.4916
rhand -41.9823 -12.831
rfingers 7.12502
rthumb -14.8781 -42.2767
lclavicle -1.25731e-014 -9.93923e-015
lhumerus -54.7502 -15.5177 88.2379
lradius 43.3812
lwrist -26.8999
lhand -28.6136 14.5662
lfingers 7.12502
lthumb -1.97854 44.5367
rfemur -19.2779 -12.507 20.5841
rtibia 33.6547
rfoot -166.159 9.24821
rtoes -17.328
lfemur -1.34932 -10.178 -14.0013
ltibia 30.2296
lfoot -13.7663 -10.8886
ltoes -18.773
20
root 11.3694 18.0715 29.3398 -173.803 -15.0053 179.146
lowerback 2.32496 0.991936 -2.715
upperback 0.840991 1.25235 1.00362
thorax -0.521509 0.617005 2.51707
lowerneck -11.5303 -2.37302 -9.13959
upperneck 20.5168 -5.36778 13.4292
head 8.87915 -2.28194 5.51354
rclavicle 3.26007e-014 3.97569e-016
rhumerus -40.4714 -1.32878 -80.4008
rradius 93.3383
rwrist 19.582
rhand -41.7228 -12.7395
rfingers 7.12502
rthumb -14.6281 -42.2036
lclavicle 3.26007e-014 3.97569e-016
lhumerus -54.6142 -15.5129 88.3394
lradius 43.362
lwrist -26.7568
lhand -28.8643 14.3867
lfingers 7.12502
lthumb -2.22066 44.3548
rfemur -19.2731 -12.0717 20.7356
rtibia 33.6452
rfoot -166.301 9.12525
rtoes -17.358
lfemur -1.36033 -10.1148 -13.8756
ltibia 30.3025
lfoot -13.7113 -10.887
ltoes -18.5803
21
root 11.3712 18.0702 29.3305 -174.036 -14.8851 179.562
lowerback 2.60935 1.09139 -2.69682
upperback 0.806458 1.37675 1.37071
thorax -0.732721 0.681096 2.87514
lowerneck -11.4523 -2.42418 -9.40547
upperneck 20.5179 -5.35119 13.3154
head 8.86588 -2.30308 5.52263
rclavicle -1.56543e-014 5.96354e-015
rhumerus -40.6246 -1.16231 -79.9605
rradius 93.3084
rwrist 19.6535
rhand -41.1475 -12.1081
rfingers 7.12502
rthumb -14.0738 -41.6116
lclavicle -1.56543e-014 5.96354e-015
lhumerus -54.7441 -15.4511 88.9655
lradius 43.5732
lwrist -26.5858
lhand -28.8751 14.41
lfingers 7.12502
lthumb -2.23111 44.3781
rfemur -19.1162 -11.6901 21.179
rtibia 33.662
rfoot -166.514 8.99091
rtoes -17.2868
lfemur -1.19422 -10.076 -13.3911
ltibia 30.2696
lfoot -13.5548 -11.0104
ltoes -18.2992
22
root 11.3644 18.0693 29.3235 -173.964 -14.8352 179.5
lowerback 2.56672 1.02759 -2.55288
upperback 0.83183 1.29623 1.16537
thorax -0.669312 0.640104 2.58659
lowerneck -11.5163 -2.34068 -9.05981
upperneck 20.5183 -5.29688 13.2714
head 8.86154 -2.25538 5.45141
rclavicle -4.93483e-014 -1.59028e-015
rhumerus -40.6024 -1.02531 -80.4685
rradius 93.2315
rwrist 19.3137
rhand -41.7931 -12.5079
rfingers 7.12502
rthumb -14.6958 -41.967
lclavicle -4.93483e-014 -1.59028e-015
lhumerus -54.6624 -15.509 88.8413
lradius 43.7668
lwrist -26.4705
lhand -28.8011 14.5483
lfingers 7.12502
lthumb -2.15959 44.5171
rfemur -19.1467 -11.7711 21.1008
rtibia 33.6309
rfoot -166.399 9.08978
rtoes -17.1913
lfemur -1.27517 -9.84896 -13.4219
ltibia 30.2946
lfoot -13.453 -11.2006
ltoes -18.5168
